<svg width="624" height="119" viewBox="0 0 624 119" fill="none" xmlns="http://www.w3.org/2000/svg">
<g clip-path="url(#clip0_5_324)">
<path d="M46.968 109.28C40.2267 109.28 33.9973 108.171 28.28 105.952C22.648 103.648 17.7413 100.448 13.56 96.352C9.3787 92.1707 6.13603 87.264 3.83203 81.632C1.61336 75.9147 0.504028 69.6427 0.504028 62.816C0.504028 56.16 1.6987 50.016 4.08803 44.384C6.47736 38.752 9.7627 33.888 13.944 29.792C18.2107 25.6107 23.2027 22.368 28.92 20.064C34.7227 17.76 41.0373 16.608 47.864 16.608C52.1307 16.608 56.312 17.1627 60.408 18.272C64.504 19.3813 68.3013 21.0453 71.8 23.264C75.384 25.3973 78.456 27.9573 81.016 30.944L67.704 46.176C65.912 44.2987 63.992 42.6773 61.944 41.312C59.9813 39.8613 57.8053 38.752 55.416 37.984C53.0267 37.216 50.4667 36.832 47.736 36.832C44.3227 36.832 41.08 37.472 38.008 38.752C35.0213 39.9467 32.376 41.696 30.072 44C27.8533 46.2187 26.104 48.9493 24.824 52.192C23.544 55.4347 22.904 59.0613 22.904 63.072C22.904 66.9973 23.544 70.5813 24.824 73.824C26.104 76.9813 27.896 79.712 30.2 82.016C32.504 84.32 35.2773 86.0693 38.52 87.264C41.848 88.4587 45.5173 89.056 49.528 89.056C52.2587 89.056 54.8613 88.672 57.336 87.904C59.8107 87.136 62.072 86.112 64.12 84.832C66.2533 83.4667 68.1307 81.9307 69.752 80.224L80.248 96.864C78.1147 99.2533 75.256 101.387 71.672 103.264C68.1733 105.141 64.248 106.635 59.896 107.744C55.6293 108.768 51.32 109.28 46.968 109.28ZM135.971 109.28C129.144 109.28 122.915 108.128 117.283 105.824C111.651 103.52 106.744 100.277 102.563 96.096C98.3817 91.9147 95.139 87.008 92.835 81.376C90.531 75.744 89.379 69.5573 89.379 62.816C89.379 56.0747 90.531 49.888 92.835 44.256C95.139 38.624 98.3817 33.7173 102.563 29.536C106.744 25.3547 111.651 22.112 117.283 19.808C122.915 17.504 129.102 16.352 135.843 16.352C142.584 16.352 148.771 17.504 154.403 19.808C160.035 22.112 164.942 25.3547 169.123 29.536C173.304 33.7173 176.504 38.624 178.723 44.256C181.027 49.888 182.179 56.0747 182.179 62.816C182.179 69.472 181.027 75.6587 178.723 81.376C176.504 87.008 173.304 91.9147 169.123 96.096C164.942 100.277 160.035 103.52 154.403 105.824C148.771 108.128 142.627 109.28 135.971 109.28ZM135.843 88.8C139.342 88.8 142.542 88.16 145.443 86.88C148.43 85.6 150.99 83.808 153.123 81.504C155.342 79.1147 157.048 76.3413 158.243 73.184C159.438 70.0267 160.035 66.5707 160.035 62.816C160.035 59.0613 159.438 55.6053 158.243 52.448C157.048 49.2907 155.342 46.56 153.123 44.256C150.99 41.8667 148.43 40.032 145.443 38.752C142.542 37.472 139.342 36.832 135.843 36.832C132.344 36.832 129.102 37.472 126.115 38.752C123.214 40.032 120.654 41.8667 118.435 44.256C116.216 46.56 114.51 49.2907 113.315 52.448C112.206 55.6053 111.651 59.0613 111.651 62.816C111.651 66.5707 112.206 70.0693 113.315 73.312C114.51 76.4693 116.216 79.2 118.435 81.504C120.654 83.808 123.214 85.6 126.115 86.88C129.102 88.16 132.344 88.8 135.843 88.8ZM199.014 108V18.4H239.334C245.051 18.4 250.214 19.6373 254.822 22.112C259.515 24.5867 263.185 28 265.83 32.352C268.475 36.6187 269.798 41.4827 269.798 46.944C269.798 52.576 268.475 57.6533 265.83 62.176C263.185 66.6133 259.558 70.112 254.95 72.672C250.342 75.232 245.137 76.512 239.334 76.512H219.75V108H199.014ZM248.678 108L225.894 67.552L248.166 64.352L273.51 108H248.678ZM219.75 59.872H237.414C239.633 59.872 241.553 59.4027 243.174 58.464C244.881 57.44 246.161 56.032 247.014 54.24C247.953 52.448 248.422 50.4 248.422 48.096C248.422 45.792 247.91 43.7867 246.886 42.08C245.862 40.288 244.369 38.9227 242.406 37.984C240.529 37.0453 238.225 36.576 235.494 36.576H219.75V59.872ZM288.889 108V18.4H351.353V36.96H310.009V89.44H352.633V108H288.889ZM299.129 71.264V53.6H345.593V71.264H299.129ZM376.509 109.408C373.01 109.408 370.28 108.427 368.317 106.464C366.44 104.501 365.501 101.685 365.501 98.016C365.501 94.6027 366.525 91.8293 368.573 89.696C370.621 87.5627 373.266 86.496 376.509 86.496C380.008 86.496 382.738 87.52 384.701 89.568C386.664 91.5307 387.645 94.3467 387.645 98.016C387.645 101.344 386.621 104.075 384.573 106.208C382.525 108.341 379.837 109.408 376.509 109.408ZM376.509 61.664C373.01 61.664 370.28 60.6827 368.317 58.72C366.44 56.7573 365.501 53.9413 365.501 50.272C365.501 46.8587 366.525 44.0853 368.573 41.952C370.621 39.8187 373.266 38.752 376.509 38.752C380.008 38.752 382.738 39.776 384.701 41.824C386.664 43.7867 387.645 46.6027 387.645 50.272C387.645 53.6 386.621 56.3307 384.573 58.464C382.525 60.5973 379.837 61.664 376.509 61.664ZM479.528 0.864014H496.68V60.768H479.528V0.864014ZM417.576 66.016H496.68V98.144H434.472V110.048H417.832V85.856H479.784V78.944H417.576V66.016ZM417.832 105.44H499.624V118.624H417.832V105.44ZM425.896 3.55201H439.976V12.512C439.976 34.4 428.968 54.24 405.8 61.28L397.608 47.84C417.448 41.824 425.896 26.976 425.896 12.512V3.55201ZM429.352 3.55201H443.304V12.512C443.304 26.592 451.624 40.416 470.952 45.92L462.76 59.104C439.976 52.448 429.352 33.888 429.352 12.512V3.55201ZM515.87 64.352H623.262V77.92H515.87V64.352ZM529.054 3.16801H610.206V35.296H546.078V48.096H529.182V23.264H593.438V16.096H529.054V3.16801ZM529.182 42.976H612.51V55.904H529.182V42.976ZM561.054 49.248H578.078V71.776H561.054V49.248ZM527.774 84.576H610.974V119.008H593.95V98.016H527.774V84.576Z" fill="#00EBB2"/>
</g>
<defs>
<clipPath id="clip0_5_324">
<rect width="624" height="119" fill="white"/>
</clipPath>
</defs>
</svg>
